<?xml version="1.0" encoding="UTF-8"?>
<svg version="1.1" viewBox="0 0 600 300" xmlns="http://www.w3.org/2000/svg">
 <g>
  <path d="M0 0h600v300H0Z" fill="#59c059" stroke-width=".89803"/>
  <g stroke-miterlimit="10">
   <path transform="matrix(.93943 0 0 .93943 18.172 -24.733)" d="m-19.344 186c0-176.37 142.98-319.34 319.34-319.34 176.37 0 319.34 142.98 319.34 319.34 0 176.37-142.98 319.34-319.34 319.34-176.37 0-319.34-142.98-319.34-319.34z" fill="#389438"/>
   <path transform="matrix(.93943 0 0 .93943 18.172 -24.733)" d="m20.156 186c0-154.55 125.29-279.84 279.84-279.84 154.55 0 279.84 125.29 279.84 279.84 0 154.55-125.29 279.84-279.84 279.84s-279.84-125.29-279.84-279.84z" fill="#59c059"/>
   <path transform="matrix(.93943 0 0 .93943 18.172 -24.733)" d="m60.156 186c0-132.46 107.38-239.84 239.84-239.84 132.46 0 239.84 107.38 239.84 239.84 0 132.46-107.38 239.84-239.84 239.84-132.46 0-239.84-107.38-239.84-239.84z" fill="#389438"/>
   <path transform="matrix(.93943 0 0 .93943 18.172 -24.733)" d="m100.66 186c0-110.09 89.249-199.34 199.34-199.34 110.09 0 199.34 89.249 199.34 199.34 0 110.09-89.249 199.34-199.34 199.34-110.09 0-199.34-89.249-199.34-199.34z" fill="#59c059"/>
   <path transform="matrix(.93943 0 0 .93943 18.172 -24.733)" d="m139.91 186c0-88.418 71.677-160.09 160.09-160.09s160.09 71.677 160.09 160.09c0 88.418-71.677 160.09-160.09 160.09-88.418 0-160.09-71.677-160.09-160.09z" fill="#389438"/>
   <path transform="matrix(.93943 0 0 .93943 18.172 -24.733)" d="m180.66 186c0-65.912 53.432-119.34 119.34-119.34 65.912 0 119.34 53.432 119.34 119.34 0 65.912-53.432 119.34-119.34 119.34s-119.34-53.432-119.34-119.34z" fill="#59c059"/>
   <path transform="matrix(.93943 0 0 .93943 18.172 -24.733)" d="m219.91 186c0-44.235 35.859-80.094 80.094-80.094 44.235 0 80.094 35.859 80.094 80.094 0 44.235-35.859 80.094-80.094 80.094s-80.094-35.859-80.094-80.094z" fill="#389438"/>
   <path transform="matrix(.93943 0 0 .93943 18.172 -24.733)" d="m260.07 186c0-22.051 17.876-39.927 39.927-39.927s39.927 17.876 39.927 39.927-17.876 39.927-39.927 39.927-39.927-17.876-39.927-39.927z" fill="#0fbd8c"/>
  </g>
 </g>
 <path d="m273.75 54.213c-5.54 0-10 4.46-10 10v49.535h-49.535c-5.54 0-10 4.46-10 10v52.504c0 5.54 4.46 10 10 10h49.535v49.535c0 5.54 4.46 10 10 10h52.504c5.54 0 10-4.46 10-10v-49.535h49.535c5.54 0 10-4.46 10-10v-52.504c0-5.54-4.46-10-10-10h-49.535v-49.535c0-5.54-4.46-10-10-10z" fill="#fff" stroke-width="0"/>
</svg>
