<?xml version="1.0" encoding="UTF-8" standalone="no"?>
<svg
   version="1.1"
   width="600"
   height="300.418"
   viewBox="0 0 600 300.418"
   id="svg14"
   xmlns="http://www.w3.org/2000/svg"
   xmlns:svg="http://www.w3.org/2000/svg">
  <defs
     id="defs14" />
  <g
     transform="translate(0,0.20899463)"
     id="g14">
    <g
       stroke-miterlimit="10"
       id="g13">
      <path
         d="m 0,299.99999 v -300 h 600 v 300 z"
         fill="#59c059"
         stroke="none"
         stroke-width="0.89803"
         id="path1" />
      <path
         d="M 0.79081,150 C 0.79081,-15.24867 134.75132,-149.20919 300,-149.20919 465.24865,-149.20919 599.2092,-15.24866 599.2092,150 599.2092,315.24864 465.24865,449.2092 300,449.2092 134.75132,449.2092 0.79081,315.24863 0.79081,150 Z"
         fill="#4da64d"
         stroke="none"
         stroke-width="0.93695"
         id="path2" />
      <path
         d="m 37.80029,150 c 0,-144.80889 117.3908,-262.1997 262.19971,-262.1997 144.80889,0 262.1997,117.39081 262.1997,262.1997 0,144.80886 -117.3908,262.19969 -262.1997,262.19969 -144.80889,0 -262.19969,-117.39083 -262.19969,-262.19968 z"
         fill="#59c059"
         stroke="none"
         stroke-width="0.93695"
         id="path3" />
      <path
         d="m 75.2783,150 c 0,-124.11039 100.61135,-224.72174 224.72174,-224.72174 124.11039,0 224.72172,100.61135 224.72172,224.72174 0,124.11036 -100.61136,224.72174 -224.72172,224.72174 C 175.88966,374.72174 75.27831,274.11036 75.2783,150 Z"
         fill="#4da64d"
         stroke="none"
         stroke-width="0.93695"
         id="path4" />
      <path
         d="m 113.22474,150 c 0,-103.15314 83.62214,-186.77528 186.77529,-186.77528 103.15314,0 186.7753,83.62215 186.7753,186.77528 0,103.15314 -83.62216,186.7753 -186.7753,186.7753 C 196.8469,336.7753 113.22476,253.15314 113.22476,150 Z"
         fill="#59c059"
         stroke="none"
         stroke-width="0.93695"
         id="path5" />
      <path
         d="M 149.99998,150 C 149.99998,67.15728 217.15728,-1e-5 300,-1e-5 382.84271,-1e-5 450.00004,67.15728 450.00004,150 c 0,82.84272 -67.15733,150.00002 -150,150.00002 -82.84274,0 -150.00003,-67.15729 -150.00003,-150.00001 z"
         fill="#4da64d"
         stroke="none"
         stroke-width="0.93695"
         id="path6" />
      <path
         d="m 188.18067,150 c 0,-61.7561 50.06322,-111.81933 111.81933,-111.81933 61.7561,0 111.81936,50.06323 111.81936,111.81933 0,61.75611 -50.06323,111.81933 -111.81933,111.81933 -61.75612,0 -111.81935,-50.06322 -111.81935,-111.81933 z"
         fill="#59c059"
         stroke="none"
         stroke-width="0.93695"
         id="path7" />
      <path
         d="m 224.95593,150 c 0,-41.44572 33.59838,-75.0441 75.04407,-75.0441 41.44572,0 75.0441,33.59837 75.0441,75.0441 0,41.44569 -33.59838,75.04406 -75.04406,75.04406 -41.44572,0 -75.04409,-33.59837 -75.04409,-75.04406 z"
         fill="#4da64d"
         stroke="none"
         stroke-width="0.93695"
         id="path8" />
      <path
         d="m 262.59002,150 c 0,-20.66096 16.74901,-37.40996 37.40993,-37.40996 20.66093,0 37.40997,16.74901 37.40997,37.40996 0,20.66093 -16.74904,37.40993 -37.40997,37.40993 -20.66092,0 -37.40993,-16.749 -37.40993,-37.40993 z"
         fill="#59c059"
         stroke="none"
         stroke-width="0.93695"
         id="path9" />
      <path
         d="m 385.40964,166.44168 c 1.83801,44.34708 -34.90707,81.893 -82.08097,83.84815 -47.1739,1.95515 -86.89618,-32.4062 -88.7348,-76.76856 -1.30198,-31.4141 15.87364,-92.94022 34.45751,-86.62657 11.42364,3.88103 34.49881,18.71014 48.25705,18.13992 16.10542,-0.66854 38.84582,-37.43024 54.9777,-20.42038 18.29128,19.28678 31.91313,52.6237 33.12348,81.82746 z"
         fill="none"
         stroke="#ffffff"
         stroke-width="12.5"
         id="path10" />
      <path
         d="m 277.57921,55.61339 c 3.03965,-1.99136 6.06992,-3.98843 9.1064,-5.98269 2.38342,3.35063 4.77564,6.6183 6.7414,10.36847 7.17746,13.65915 6.33433,28.43659 6.75579,43.18 -1.13351,0.31913 -2.96318,0.59069 -4.08736,0.83909 0.01,-18.80086 -5.16951,-35.82096 -18.51622,-48.40487 z"
         fill="#ffffff"
         stroke="#ffffff"
         stroke-width="12.5"
         id="path11" />
      <path
         d="m 327.16146,157.3732 c 0.53573,12.92583 -5.42414,26.21764 -14.69702,26.60194 -9.27288,0.38433 -16.21111,-10.54486 -16.74683,-23.47066 -0.53573,-12.92583 6.70088,-16.80375 15.97377,-17.18809 9.27288,-0.38433 14.93439,1.131 15.47009,14.05684 z"
         fill="#ffffff"
         stroke="none"
         stroke-width="0"
         id="path12" />
      <path
         d="m 370.48906,152.19679 c 0.53573,12.92583 0.004,21.91536 -9.269,22.29967 -9.27288,0.38433 -13.937,-4.69513 -14.47273,-17.62097 -0.53573,-12.92583 -3.03812,-20.89735 6.23479,-21.28165 9.27285,-0.38433 16.97128,3.67712 17.507,16.60295 z"
         fill="#ffffff"
         stroke="none"
         stroke-width="0"
         id="path13" />
    </g>
  </g>
</svg>
